<mxfile host="app.diagrams.net" modified="2021-03-26T06:40:27.301Z" agent="5.0 (Windows NT 10.0; Win64; x64) AppleWebKit/537.36 (KHTML, like Gecko) Chrome/89.0.4389.90 Safari/537.36" etag="ehRx8OMJ5BxWvA4xwq-T" version="14.5.1" type="github">
  <diagram id="lCW9Zrf9cOoER9jA_-y1" name="第 1 页">
    <mxGraphModel dx="1422" dy="762" grid="1" gridSize="10" guides="1" tooltips="1" connect="1" arrows="1" fold="1" page="1" pageScale="1" pageWidth="1169" pageHeight="827" math="0" shadow="0">
      <root>
        <mxCell id="0" />
        <mxCell id="1" parent="0" />
        <mxCell id="el853A5kxA_G_wKz6bNt-2" value="" style="outlineConnect=0;fontColor=#232F3E;gradientColor=none;fillColor=#232F3E;strokeColor=none;dashed=0;verticalLabelPosition=bottom;verticalAlign=top;align=center;html=1;fontSize=12;fontStyle=0;aspect=fixed;pointerEvents=1;shape=mxgraph.aws4.traditional_server;" vertex="1" parent="1">
          <mxGeometry x="320" y="200" width="45" height="78" as="geometry" />
        </mxCell>
        <mxCell id="el853A5kxA_G_wKz6bNt-3" value="" style="outlineConnect=0;fontColor=#232F3E;gradientColor=none;fillColor=#232F3E;strokeColor=none;dashed=0;verticalLabelPosition=bottom;verticalAlign=top;align=center;html=1;fontSize=12;fontStyle=0;aspect=fixed;pointerEvents=1;shape=mxgraph.aws4.traditional_server;" vertex="1" parent="1">
          <mxGeometry x="580" y="200" width="45" height="78" as="geometry" />
        </mxCell>
        <mxCell id="el853A5kxA_G_wKz6bNt-4" value="" style="outlineConnect=0;fontColor=#232F3E;gradientColor=none;fillColor=#232F3E;strokeColor=none;dashed=0;verticalLabelPosition=bottom;verticalAlign=top;align=center;html=1;fontSize=12;fontStyle=0;aspect=fixed;pointerEvents=1;shape=mxgraph.aws4.traditional_server;" vertex="1" parent="1">
          <mxGeometry x="840" y="200" width="45" height="78" as="geometry" />
        </mxCell>
        <mxCell id="el853A5kxA_G_wKz6bNt-5" value="" style="outlineConnect=0;fontColor=#232F3E;gradientColor=none;fillColor=#232F3E;strokeColor=none;dashed=0;verticalLabelPosition=bottom;verticalAlign=top;align=center;html=1;fontSize=12;fontStyle=0;aspect=fixed;pointerEvents=1;shape=mxgraph.aws4.client;" vertex="1" parent="1">
          <mxGeometry x="303.5" y="560" width="78" height="76" as="geometry" />
        </mxCell>
        <mxCell id="el853A5kxA_G_wKz6bNt-6" value="" style="outlineConnect=0;fontColor=#232F3E;gradientColor=none;fillColor=#232F3E;strokeColor=none;dashed=0;verticalLabelPosition=bottom;verticalAlign=top;align=center;html=1;fontSize=12;fontStyle=0;aspect=fixed;pointerEvents=1;shape=mxgraph.aws4.client;" vertex="1" parent="1">
          <mxGeometry x="563.5" y="560" width="78" height="76" as="geometry" />
        </mxCell>
        <mxCell id="el853A5kxA_G_wKz6bNt-7" value="" style="outlineConnect=0;fontColor=#232F3E;gradientColor=none;fillColor=#232F3E;strokeColor=none;dashed=0;verticalLabelPosition=bottom;verticalAlign=top;align=center;html=1;fontSize=12;fontStyle=0;aspect=fixed;pointerEvents=1;shape=mxgraph.aws4.client;" vertex="1" parent="1">
          <mxGeometry x="823.5" y="560" width="78" height="76" as="geometry" />
        </mxCell>
        <object label="" id="el853A5kxA_G_wKz6bNt-8">
          <mxCell style="outlineConnect=0;fontColor=#232F3E;gradientColor=none;fillColor=#232F3E;strokeColor=none;dashed=0;verticalLabelPosition=bottom;verticalAlign=top;align=center;html=1;fontSize=12;fontStyle=0;aspect=fixed;pointerEvents=1;shape=mxgraph.aws4.external_toolkit;" vertex="1" parent="1">
            <mxGeometry x="470" y="370" width="68" height="78" as="geometry" />
          </mxCell>
        </object>
        <mxCell id="el853A5kxA_G_wKz6bNt-19" value="" style="endArrow=classic;html=1;strokeWidth=2;dashed=1;dashPattern=1 2;" edge="1" parent="1" source="el853A5kxA_G_wKz6bNt-4" target="el853A5kxA_G_wKz6bNt-8">
          <mxGeometry width="50" height="50" relative="1" as="geometry">
            <mxPoint x="810" y="249.40697674418607" as="sourcePoint" />
            <mxPoint x="531.95" y="348.79999999999995" as="targetPoint" />
          </mxGeometry>
        </mxCell>
        <mxCell id="el853A5kxA_G_wKz6bNt-20" value="" style="endArrow=classic;html=1;strokeWidth=2;dashed=1;dashPattern=1 2;" edge="1" parent="1" source="el853A5kxA_G_wKz6bNt-3" target="el853A5kxA_G_wKz6bNt-8">
          <mxGeometry width="50" height="50" relative="1" as="geometry">
            <mxPoint x="600" y="249.99697674418607" as="sourcePoint" />
            <mxPoint x="550" y="340" as="targetPoint" />
          </mxGeometry>
        </mxCell>
        <mxCell id="el853A5kxA_G_wKz6bNt-21" value="" style="endArrow=classic;html=1;strokeWidth=2;dashed=1;dashPattern=1 2;" edge="1" parent="1" source="el853A5kxA_G_wKz6bNt-8" target="el853A5kxA_G_wKz6bNt-5">
          <mxGeometry width="50" height="50" relative="1" as="geometry">
            <mxPoint x="441.67499999999995" y="472.4000000000001" as="sourcePoint" />
            <mxPoint x="360" y="370" as="targetPoint" />
          </mxGeometry>
        </mxCell>
        <mxCell id="el853A5kxA_G_wKz6bNt-22" value="" style="endArrow=classic;html=1;strokeWidth=2;dashed=1;dashPattern=1 2;" edge="1" parent="1" source="el853A5kxA_G_wKz6bNt-8" target="el853A5kxA_G_wKz6bNt-6">
          <mxGeometry width="50" height="50" relative="1" as="geometry">
            <mxPoint x="520.7978723404256" y="470" as="sourcePoint" />
            <mxPoint x="603" y="550" as="targetPoint" />
          </mxGeometry>
        </mxCell>
        <mxCell id="el853A5kxA_G_wKz6bNt-23" value="" style="endArrow=classic;html=1;strokeWidth=2;dashed=1;dashPattern=1 2;" edge="1" parent="1" source="el853A5kxA_G_wKz6bNt-8" target="el853A5kxA_G_wKz6bNt-7">
          <mxGeometry width="50" height="50" relative="1" as="geometry">
            <mxPoint x="503.7750000000001" y="470" as="sourcePoint" />
            <mxPoint x="360" y="370" as="targetPoint" />
          </mxGeometry>
        </mxCell>
        <mxCell id="el853A5kxA_G_wKz6bNt-24" value="" style="endArrow=classic;startArrow=classic;html=1;strokeWidth=2;" edge="1" parent="1" source="el853A5kxA_G_wKz6bNt-34" target="el853A5kxA_G_wKz6bNt-2">
          <mxGeometry width="50" height="50" relative="1" as="geometry">
            <mxPoint x="446.18421052631584" y="350" as="sourcePoint" />
            <mxPoint x="510" y="370" as="targetPoint" />
          </mxGeometry>
        </mxCell>
        <mxCell id="el853A5kxA_G_wKz6bNt-27" value="" style="endArrow=classic;html=1;strokeWidth=2;dashed=1;dashPattern=1 2;" edge="1" parent="1" source="el853A5kxA_G_wKz6bNt-2" target="el853A5kxA_G_wKz6bNt-8">
          <mxGeometry width="50" height="50" relative="1" as="geometry">
            <mxPoint x="612.5" y="287.6279509385854" as="sourcePoint" />
            <mxPoint x="446.2750000000001" y="346.4000000000001" as="targetPoint" />
          </mxGeometry>
        </mxCell>
        <mxCell id="el853A5kxA_G_wKz6bNt-28" value="" style="endArrow=classic;startArrow=classic;html=1;strokeWidth=2;" edge="1" parent="1" source="el853A5kxA_G_wKz6bNt-6" target="el853A5kxA_G_wKz6bNt-34">
          <mxGeometry width="50" height="50" relative="1" as="geometry">
            <mxPoint x="580" y="330" as="sourcePoint" />
            <mxPoint x="520.7978723404256" y="470" as="targetPoint" />
          </mxGeometry>
        </mxCell>
        <mxCell id="el853A5kxA_G_wKz6bNt-29" value="" style="endArrow=classic;startArrow=classic;html=1;strokeWidth=2;" edge="1" parent="1" source="el853A5kxA_G_wKz6bNt-7" target="el853A5kxA_G_wKz6bNt-34">
          <mxGeometry width="50" height="50" relative="1" as="geometry">
            <mxPoint x="356.5" y="420" as="sourcePoint" />
            <mxPoint x="540" y="470" as="targetPoint" />
          </mxGeometry>
        </mxCell>
        <mxCell id="el853A5kxA_G_wKz6bNt-32" value="" style="endArrow=classic;startArrow=classic;html=1;strokeWidth=2;" edge="1" parent="1" source="el853A5kxA_G_wKz6bNt-34" target="el853A5kxA_G_wKz6bNt-4">
          <mxGeometry width="50" height="50" relative="1" as="geometry">
            <mxPoint x="540.9200000000001" y="389" as="sourcePoint" />
            <mxPoint x="710" y="318" as="targetPoint" />
          </mxGeometry>
        </mxCell>
        <mxCell id="el853A5kxA_G_wKz6bNt-33" value="" style="endArrow=classic;startArrow=classic;html=1;strokeWidth=2;" edge="1" parent="1" source="el853A5kxA_G_wKz6bNt-34" target="el853A5kxA_G_wKz6bNt-3">
          <mxGeometry width="50" height="50" relative="1" as="geometry">
            <mxPoint x="524.6052631578948" y="350" as="sourcePoint" />
            <mxPoint x="608.47" y="278" as="targetPoint" />
          </mxGeometry>
        </mxCell>
        <mxCell id="el853A5kxA_G_wKz6bNt-34" value="" style="outlineConnect=0;fontColor=#232F3E;gradientColor=none;fillColor=#232F3E;strokeColor=none;dashed=0;verticalLabelPosition=bottom;verticalAlign=top;align=center;html=1;fontSize=12;fontStyle=0;aspect=fixed;pointerEvents=1;shape=mxgraph.aws4.internet_alt2;" vertex="1" parent="1">
          <mxGeometry x="625" y="375" width="78" height="78" as="geometry" />
        </mxCell>
        <mxCell id="el853A5kxA_G_wKz6bNt-35" value="" style="endArrow=classic;startArrow=classic;html=1;strokeWidth=2;" edge="1" parent="1" source="el853A5kxA_G_wKz6bNt-5" target="el853A5kxA_G_wKz6bNt-34">
          <mxGeometry width="50" height="50" relative="1" as="geometry">
            <mxPoint x="356.4983850931677" y="500.19" as="sourcePoint" />
            <mxPoint x="449.4680851063829" y="470" as="targetPoint" />
          </mxGeometry>
        </mxCell>
      </root>
    </mxGraphModel>
  </diagram>
</mxfile>
